<?xml version="1.0" encoding="UTF-8"?>
<svg version="1.1" xmlns="http://www.w3.org/2000/svg" width="512" height="512">
<path d="M0 0 C0 0.66 0 1.32 0 2 C-1.16965793 3.04497358 -2.38768092 4.036096 -3.625 5 C-16.81877532 16.35224131 -18.37373437 33.69358875 -20.43017578 49.96655273 C-22.33314258 64.29729228 -25.89875963 78.97186751 -37.64453125 88.42578125 C-43.83355874 92.5620633 -50.8131261 95.16404947 -57.72265625 97.8359375 C-80.44986227 106.63754853 -109.03289094 120.50906994 -120.4375 143.4375 C-122.56069615 148.81010939 -123.2617063 153.72072648 -121.15234375 159.203125 C-118.25999984 164.49758505 -114.62842949 167.01941944 -109 169 C-99.89576088 171.57895747 -90.68436108 169.09330593 -82.4375 164.875 C-66.57121966 155.34954496 -60.77086084 141.0724505 -54.72265625 124.5 C-50.60921254 113.35559021 -45.92634073 102.69807407 -34.921875 96.90625 C-30.87943467 95.23990055 -27.41173422 94.66911993 -23 95 C-23 95.66 -23 96.32 -23 97 C-24.0828125 98.051875 -24.0828125 98.051875 -25.1875 99.125 C-36.37419204 110.05888544 -37.66456906 125.79675599 -39.0625 140.5625 C-42.27331329 173.73383946 -42.27331329 173.73383946 -55.46826172 185.94677734 C-64.78503025 193.50261373 -76.08111461 197.93236425 -87.1875 202.125 C-108.83724657 209.75341865 -108.83724657 209.75341865 -123.14453125 226.5078125 C-124.39251849 230.14350136 -124.25391575 232.37757673 -123 236 C-119.7429397 240.98138633 -116.69245434 243.2922637 -111 245 C-102.81439271 246.41946947 -95.02394274 243.47532833 -88.30664062 238.82861328 C-85.31155463 236.5873752 -82.41822478 234.22868132 -79.52734375 231.85546875 C-58.68801798 214.77263742 -58.68801798 214.77263742 -47.3125 214.9375 C-46.50425781 214.94652344 -45.69601562 214.95554688 -44.86328125 214.96484375 C-43.94095703 214.98224609 -43.94095703 214.98224609 -43 215 C-43 215.66 -43 216.32 -43 217 C-44.72940064 218.08955258 -46.51207969 219.09480268 -48.3125 220.0625 C-87.12763541 242.11862989 -102.49002358 286.51959561 -117.55847168 325.86444092 C-128.69798955 354.90697288 -140.53206377 382.56874325 -161.87890625 405.69140625 C-163.82998345 407.81495436 -165.69968282 409.98675681 -167.5625 412.1875 C-179.32889247 425.6528219 -195.38776152 436.47942239 -211 445 C-211.94045166 445.51554443 -211.94045166 445.51554443 -212.89990234 446.04150391 C-255.33789903 468.98881954 -304.8462282 474.19769011 -351.203125 460.8515625 C-380.49040766 451.82247842 -406.04756874 436.23464059 -428 415 C-428.49983398 414.52594727 -428.99966797 414.05189453 -429.51464844 413.56347656 C-461.67264838 383.03682728 -480.75425317 339.59824198 -482.28515625 295.375 C-483.30026835 244.56501421 -465.67700815 200.50708568 -431.5078125 163.28515625 C-424.91671659 156.44554361 -417.5873788 150.67731767 -410 145 C-409.16855469 144.37351563 -408.33710938 143.74703125 -407.48046875 143.1015625 C-385.45796855 127.11930511 -360.13220185 116.4868783 -333.375 111.6875 C-332.49424805 111.52797852 -331.61349609 111.36845703 -330.70605469 111.20410156 C-312.386606 108.1830931 -293.7108588 108.91762774 -275.21899414 109.09594727 C-243.06363068 109.38481557 -207.89509078 108.13825125 -183.16967773 84.58398438 C-176.57630109 78.0821958 -170.8591413 71.02063716 -165.27001953 63.65478516 C-162.59110696 60.16426816 -159.78130842 56.78010593 -156.9765625 53.390625 C-155.78961983 51.95503426 -154.61383722 50.50994571 -153.4609375 49.046875 C-144.29962869 37.68480485 -131.44262877 29.36229829 -117 27 C-114.48726883 26.95265284 -112.00612648 26.95404267 -109.49609375 27.0078125 C-108.01758524 27.02534983 -106.53906913 27.04225605 -105.06054688 27.05859375 C-102.75913801 27.08930845 -100.45812312 27.12458052 -98.15698242 27.17138672 C-83.1433766 27.46001636 -70.85929311 26.06243052 -59 16 C-59.42350735 24.8936544 -61.93608659 31.37471414 -68.4375 37.625 C-78.61353965 45.76209053 -90.74962885 49.44765819 -103.02905273 53.15991211 C-116.06057085 57.11501513 -130.16955219 62.22250556 -137.03125 74.90625 C-139.75422687 81.25986269 -139.84835805 87.17213982 -137.875 93.75 C-134.79706304 99.08509073 -130.88540679 102.04106168 -125 104 C-109.27331054 106.05506946 -95.75293003 98.85950819 -83.5 89.75 C-67.12577423 76.51248883 -58.22249696 61.41615858 -51.55078125 41.734375 C-46.26357068 26.18805964 -40.63960914 12.73536185 -25.734375 4.2890625 C-17.4300489 0.37416591 -9.0763077 -0.48240218 0 0 Z " fill="#F45059" transform="translate(497,22)"/>
<path d="M0 0 C0 0.66 0 1.32 0 2 C-1.16965793 3.04497358 -2.38768092 4.036096 -3.625 5 C-16.81877532 16.35224131 -18.37373437 33.69358875 -20.43017578 49.96655273 C-22.33314258 64.29729228 -25.89875963 78.97186751 -37.64453125 88.42578125 C-43.83355874 92.5620633 -50.8131261 95.16404947 -57.72265625 97.8359375 C-80.44986227 106.63754853 -109.03289094 120.50906994 -120.4375 143.4375 C-122.56069615 148.81010939 -123.2617063 153.72072648 -121.15234375 159.203125 C-118.25999984 164.49758505 -114.62842949 167.01941944 -109 169 C-99.89576088 171.57895747 -90.68436108 169.09330593 -82.4375 164.875 C-66.57121966 155.34954496 -60.77086084 141.0724505 -54.72265625 124.5 C-50.60921254 113.35559021 -45.92634073 102.69807407 -34.921875 96.90625 C-30.87943467 95.23990055 -27.41173422 94.66911993 -23 95 C-23 95.66 -23 96.32 -23 97 C-24.0828125 98.051875 -24.0828125 98.051875 -25.1875 99.125 C-36.37419204 110.05888544 -37.66456906 125.79675599 -39.0625 140.5625 C-42.27331329 173.73383946 -42.27331329 173.73383946 -55.46826172 185.94677734 C-64.78503025 193.50261373 -76.08111461 197.93236425 -87.1875 202.125 C-108.83724657 209.75341865 -108.83724657 209.75341865 -123.14453125 226.5078125 C-124.39251849 230.14350136 -124.25391575 232.37757673 -123 236 C-119.7429397 240.98138633 -116.69245434 243.2922637 -111 245 C-102.81439271 246.41946947 -95.02394274 243.47532833 -88.30664062 238.82861328 C-85.31155463 236.5873752 -82.41822478 234.22868132 -79.52734375 231.85546875 C-58.68801798 214.77263742 -58.68801798 214.77263742 -47.3125 214.9375 C-46.50425781 214.94652344 -45.69601562 214.95554688 -44.86328125 214.96484375 C-43.94095703 214.98224609 -43.94095703 214.98224609 -43 215 C-43 215.66 -43 216.32 -43 217 C-44.72940064 218.08955258 -46.51207969 219.09480268 -48.3125 220.0625 C-87.12763541 242.11862989 -102.49002358 286.51959561 -117.55847168 325.86444092 C-128.69798955 354.90697288 -140.53206377 382.56874325 -161.87890625 405.69140625 C-163.82998345 407.81495436 -165.69968282 409.98675681 -167.5625 412.1875 C-179.32889247 425.6528219 -195.38776152 436.47942239 -211 445 C-211.94045166 445.51554443 -211.94045166 445.51554443 -212.89990234 446.04150391 C-255.33789903 468.98881954 -304.8462282 474.19769011 -351.203125 460.8515625 C-380.49040766 451.82247842 -406.04756874 436.23464059 -428 415 C-428.49983398 414.52594727 -428.99966797 414.05189453 -429.51464844 413.56347656 C-461.67264838 383.03682728 -480.75425317 339.59824198 -482.28515625 295.375 C-483.30026835 244.56501421 -465.67700815 200.50708568 -431.5078125 163.28515625 C-424.91671659 156.44554361 -417.5873788 150.67731767 -410 145 C-409.16855469 144.37351563 -408.33710938 143.74703125 -407.48046875 143.1015625 C-385.45796855 127.11930511 -360.13220185 116.4868783 -333.375 111.6875 C-332.49424805 111.52797852 -331.61349609 111.36845703 -330.70605469 111.20410156 C-312.386606 108.1830931 -293.7108588 108.91762774 -275.21899414 109.09594727 C-243.06363068 109.38481557 -207.89509078 108.13825125 -183.16967773 84.58398438 C-176.57630109 78.0821958 -170.8591413 71.02063716 -165.27001953 63.65478516 C-162.59110696 60.16426816 -159.78130842 56.78010593 -156.9765625 53.390625 C-155.78961983 51.95503426 -154.61383722 50.50994571 -153.4609375 49.046875 C-144.29962869 37.68480485 -131.44262877 29.36229829 -117 27 C-114.48726883 26.95265284 -112.00612648 26.95404267 -109.49609375 27.0078125 C-108.01758524 27.02534983 -106.53906913 27.04225605 -105.06054688 27.05859375 C-102.75913801 27.08930845 -100.45812312 27.12458052 -98.15698242 27.17138672 C-83.1433766 27.46001636 -70.85929311 26.06243052 -59 16 C-59.42350735 24.8936544 -61.93608659 31.37471414 -68.4375 37.625 C-78.61353965 45.76209053 -90.74962885 49.44765819 -103.02905273 53.15991211 C-116.06057085 57.11501513 -130.16955219 62.22250556 -137.03125 74.90625 C-139.75422687 81.25986269 -139.84835805 87.17213982 -137.875 93.75 C-134.79706304 99.08509073 -130.88540679 102.04106168 -125 104 C-109.27331054 106.05506946 -95.75293003 98.85950819 -83.5 89.75 C-67.12577423 76.51248883 -58.22249696 61.41615858 -51.55078125 41.734375 C-46.26357068 26.18805964 -40.63960914 12.73536185 -25.734375 4.2890625 C-17.4300489 0.37416591 -9.0763077 -0.48240218 0 0 Z M-304.9375 128.6875 C-318.19008008 134.16041177 -331.25111135 135.97051842 -345.44702148 137.37768555 C-372.01323879 140.054197 -392.32490429 153.70142176 -409.30859375 174 C-411.21841349 176.25826261 -413.23295015 178.39959645 -415.25 180.5625 C-430.18795429 197.21129692 -438.69418686 212.86891343 -439.8125 235.5 C-441.50355893 263.28271146 -441.50355893 263.28271146 -451 273 C-453.03695272 274.19543171 -455.04198276 275.19101404 -457.23046875 276.078125 C-459.34847632 277.00095199 -459.34847632 277.00095199 -461 280 C-461.92017213 290.12189345 -460.92280686 300.57682896 -460.36120605 310.70422363 C-460.25269373 312.70044545 -460.1579096 314.69739856 -460.06347656 316.69433594 C-459.25268964 329.96634592 -456.67384966 342.97872968 -446.51953125 352.26953125 C-442.90824653 355.25941013 -439.22808642 358.11934499 -435.41796875 360.8515625 C-419.75982139 372.4410574 -412.28383435 391.17665029 -405.25 408.75 C-400.89797784 419.41017971 -394.49224484 427.77712358 -383.8125 432.5625 C-381.55584847 433.41359585 -379.28283932 434.2218709 -377 435 C-376.3512793 435.22510254 -375.70255859 435.45020508 -375.03417969 435.68212891 C-348.751874 444.57908575 -320.97608112 448.66717792 -293.3125 448.6875 C-292.38880615 448.69271667 -291.4651123 448.69793335 -290.51342773 448.70330811 C-255.79426066 448.76918741 -224.40272039 438.03520036 -199 414 C-198.26136719 413.31421875 -197.52273438 412.6284375 -196.76171875 411.921875 C-191.22486283 406.61121391 -186.54989319 400.80744237 -181.890625 394.73828125 C-179.95989452 392.22345871 -177.99321307 389.74584536 -175.984375 387.29296875 C-163.16860084 371.63882923 -151.18386662 355.20209884 -147 335 C-146.81953125 334.12859375 -146.6390625 333.2571875 -146.453125 332.359375 C-145.8794098 329.24740467 -145.42584208 326.13574626 -145 323 C-144.90831543 322.36143066 -144.81663086 321.72286133 -144.72216797 321.06494141 C-141.67685469 299.15002197 -139.67584806 273.18362061 -147 252 C-147.50378872 250.41834557 -148.00631952 248.83629009 -148.5078125 247.25390625 C-152.46554204 235.12275848 -157.47777384 223.49405885 -163 212 C-163.804375 210.32550781 -163.804375 210.32550781 -164.625 208.6171875 C-169.8890089 198.3466484 -176.55655323 192.02261696 -186.21484375 185.83203125 C-194.20396234 180.57691678 -194.20396234 180.57691678 -195.609375 176.02734375 C-196.2206518 172.13409268 -195.87506611 168.79195314 -195 165 C-194.38216153 159.54242689 -195.32240378 156.27023461 -198.40625 151.8671875 C-202.07820822 147.56523644 -205.48771172 145.26412811 -211.1953125 144.6640625 C-215.51625925 144.61484898 -219.65151074 144.7668162 -223.9140625 145.50390625 C-237.06505602 147.61805331 -247.57875494 145.9877859 -258.5 138.25 C-263.00341355 134.84373536 -267.38641461 131.2943476 -271.7109375 127.6640625 C-281.99302056 120.18937413 -294.37864262 123.94808407 -304.9375 128.6875 Z " fill="#FDD721" transform="translate(497,22)"/>
<path d="M0 0 C3.9162516 3.82388718 6.42060906 7.49641904 7.03125 12.9921875 C6.82023928 15.03195778 6.59278745 17.07069513 6.30859375 19.1015625 C5.57567116 24.3125161 5.57567116 24.3125161 6.65625 29.3671875 C10.9201875 34.16411718 15.82467893 37.73510939 21.09375 41.3671875 C40.17383458 55.35924953 47.5867043 81.996096 54.65625 103.6171875 C54.91051758 104.34437988 55.16478516 105.07157227 55.42675781 105.82080078 C63.11628566 128.11598029 59.40723518 156.89037036 55.65625 179.6171875 C55.53878418 180.34292969 55.42131836 181.06867188 55.30029297 181.81640625 C51.87625689 202.11142066 42.02463054 217.70387828 29.65625 233.6171875 C28.71092728 234.84374213 27.7656144 236.07030433 26.8203125 237.296875 C1.54410625 269.9280429 -24.44651472 292.72351202 -66.79736328 299.2421875 C-74.89355702 300.0982906 -83.02133641 300.15146265 -91.15625 300.1796875 C-92.6256604 300.18612274 -92.6256604 300.18612274 -94.12475586 300.19268799 C-121.65338901 300.20328021 -149.27117665 295.587766 -175.34375 286.6171875 C-176.519375 286.23175781 -177.695 285.84632813 -178.90625 285.44921875 C-189.9655023 281.3987676 -197.02732976 274.31833847 -202.48046875 264 C-203.34375 261.6171875 -203.34375 261.6171875 -202.34375 258.6171875 C-201.20679688 258.95492188 -200.06984375 259.29265625 -198.8984375 259.640625 C-174.34294401 266.80442797 -150.47323063 267.44304796 -125.34375 262.6171875 C-123.013236 262.25581207 -120.68108161 261.93271195 -118.34375 261.6171875 C-118.446875 260.3178125 -118.55 259.0184375 -118.65625 257.6796875 C-118.6382417 251.93503885 -116.55464099 248.25786455 -113.34375 243.6171875 C-112.84746094 242.84375 -112.35117188 242.0703125 -111.83984375 241.2734375 C-109.61142894 238.22346253 -107.83441312 235.99049692 -104.08203125 235.05078125 C-101.10154571 234.9823168 -98.30572224 235.25630353 -95.34375 235.6171875 C-93.77365787 235.77820517 -92.20332508 235.93688623 -90.6328125 236.09375 C-86.19634655 236.55138722 -81.77023898 237.07178952 -77.34375 237.6171875 C-78.95757757 241.01931049 -80.92978766 243.72043269 -83.34375 246.6171875 C-80.37375 244.6371875 -77.40375 242.6571875 -74.34375 240.6171875 C-73.00412175 248.02979716 -72.04138339 255.28517018 -71.58984375 262.8046875 C-71.3979732 265.84526432 -71.3979732 265.84526432 -70.34375 269.6171875 C-69.35375 260.0471875 -68.36375 250.4771875 -67.34375 240.6171875 C-63.77853346 242.39979577 -60.62919643 244.37711039 -57.34375 246.6171875 C-57.8490625 246.05128906 -58.354375 245.48539063 -58.875 244.90234375 C-59.5246875 244.16886719 -60.174375 243.43539062 -60.84375 242.6796875 C-61.81828125 241.58333984 -61.81828125 241.58333984 -62.8125 240.46484375 C-64.34375 238.6171875 -64.34375 238.6171875 -64.34375 237.6171875 C-63.53631348 237.53154541 -62.72887695 237.44590332 -61.89697266 237.35766602 C-58.25379344 236.96899375 -54.61127768 236.57441706 -50.96875 236.1796875 C-49.69773438 236.04498047 -48.42671875 235.91027344 -47.1171875 235.77148438 C-45.90546875 235.63935547 -44.69375 235.50722656 -43.4453125 235.37109375 C-42.32463379 235.25064697 -41.20395508 235.1302002 -40.04931641 235.00610352 C-37.38233134 234.76789517 -37.38233134 234.76789517 -35.34375 233.6171875 C-44.91375 232.6271875 -54.48375 231.6371875 -64.34375 230.6171875 C-62.36375 227.9771875 -60.38375 225.3371875 -58.34375 222.6171875 C-62.1592838 224.26143126 -62.1592838 224.26143126 -63.96875 226.2421875 C-64.4225 226.6959375 -64.87625 227.1496875 -65.34375 227.6171875 C-66.00375 227.6171875 -66.66375 227.6171875 -67.34375 227.6171875 C-67.34375 224.6471875 -67.34375 221.6771875 -67.34375 218.6171875 C-66.72032715 218.69050293 -66.0969043 218.76381836 -65.45458984 218.83935547 C-52.21302793 220.48584399 -52.21302793 220.48584399 -40.15625 216.09765625 C-36.39701753 212.66360797 -33.38239655 208.68249269 -30.34375 204.6171875 C-29.20963165 203.21712216 -28.07024252 201.82131094 -26.92578125 200.4296875 C0.70878397 166.23275159 15.72801979 124.16853247 11.16015625 80.03125 C9.21606662 64.64968307 4.73884562 50.42744229 -2.34375 36.6171875 C-2.82303955 35.67359375 -2.82303955 35.67359375 -3.31201172 34.7109375 C-10.01031979 21.67708008 -18.36593016 11.13310382 -28.98046875 1.0078125 C-30.34375 -0.3828125 -30.34375 -0.3828125 -30.34375 -1.3828125 C-8.40827442 -6.30620582 -8.40827442 -6.30620582 0 0 Z " fill="#F1363D" transform="translate(295.34375,170.3828125)"/>
<path d="M0 0 C3.12216771 8.08925269 4.95900488 16.58779039 7 25 C7.26695679 25.92401611 7.26695679 25.92401611 7.53930664 26.86669922 C15.98172644 65.96042693 -3.88977431 121.33545363 -21 156 C-21.34450195 156.70141113 -21.68900391 157.40282227 -22.04394531 158.12548828 C-23.07364151 160.19771623 -24.12386692 162.25750732 -25.1875 164.3125 C-25.65071655 165.21983887 -25.65071655 165.21983887 -26.12329102 166.14550781 C-28.27389928 170.16241244 -30.68756531 172.95072938 -34 176 C-34.31710938 175.48050781 -34.63421875 174.96101562 -34.9609375 174.42578125 C-38.95293227 168.45984431 -43.21932931 165.36131983 -50 163 C-55.48047718 162.03851278 -59.21972295 163.51908396 -63.859375 166.328125 C-70.83664761 171.77752769 -74.66407964 181.17920413 -76.6015625 189.62109375 C-77.16266998 194.37950524 -77.10465571 199.08870569 -77.0625 203.875 C-77.05798828 204.84953125 -77.05347656 205.8240625 -77.04882812 206.828125 C-77.03710906 209.21881434 -77.02070219 211.6093744 -77 214 C-79.0829243 214.64715133 -81.16635539 215.29267166 -83.25 215.9375 C-84.99023438 216.47697266 -84.99023438 216.47697266 -86.765625 217.02734375 C-97.04497184 220.1185966 -111.16390341 222.62987725 -121.37109375 218.703125 C-123.83783855 216.63396645 -125.34304486 214.75880943 -127 212 C-127.87591797 210.55173828 -127.87591797 210.55173828 -128.76953125 209.07421875 C-134.44035587 198.62237103 -135.45437266 188.76170433 -136.125 177.0625 C-136.16569611 176.37424133 -136.20639221 175.68598267 -136.24832153 174.97686768 C-136.5217619 170.31895254 -136.76549058 165.66002838 -137 161 C-137.05494629 160.00307129 -137.10989258 159.00614258 -137.16650391 157.97900391 C-137.28808254 155.61065217 -137.37382208 153.24550591 -137.4375 150.875 C-137.47746094 149.63492188 -137.51742187 148.39484375 -137.55859375 147.1171875 C-136.82409102 143.0183541 -135.19061773 141.58154239 -132 139 C-131.01 138.566875 -130.02 138.13375 -129 137.6875 C-123.06413189 134.34857419 -120.94717537 128.49648551 -118.8125 122.25 C-116.50996064 113.78289312 -116.20680615 105.12801278 -115.85864258 96.38964844 C-114.63214987 71.39789124 -100.37282067 54.44636128 -83.921875 37.11328125 C-81.68361157 34.75153229 -79.56806345 32.32591374 -77.5 29.8125 C-62.22594902 12.28674617 -42.91721136 3.45017876 -20.10546875 0.93432617 C-17.84179266 0.68382524 -15.58125516 0.41265923 -13.3203125 0.13867188 C-2.29773168 -1.14886584 -2.29773168 -1.14886584 0 0 Z " fill="#F67379" transform="translate(173,158)"/>
<path d="M0 0 C0 0.66 0 1.32 0 2 C-1.0828125 3.051875 -1.0828125 3.051875 -2.1875 4.125 C-13.37419204 15.05888544 -14.66456906 30.79675599 -16.0625 45.5625 C-19.27331329 78.73383946 -19.27331329 78.73383946 -32.46826172 90.94677734 C-41.78503025 98.50261373 -53.08111461 102.93236425 -64.1875 107.125 C-85.83724657 114.75341865 -85.83724657 114.75341865 -100.14453125 131.5078125 C-101.39251849 135.14350136 -101.25391575 137.37757673 -100 141 C-96.7429397 145.98138633 -93.69245434 148.2922637 -88 150 C-79.81439271 151.41946947 -72.02394274 148.47532833 -65.30664062 143.82861328 C-62.31155463 141.5873752 -59.41822478 139.22868132 -56.52734375 136.85546875 C-35.68801798 119.77263742 -35.68801798 119.77263742 -24.3125 119.9375 C-23.50425781 119.94652344 -22.69601562 119.95554687 -21.86328125 119.96484375 C-21.24839844 119.97644531 -20.63351562 119.98804688 -20 120 C-20 120.66 -20 121.32 -20 122 C-21.72940064 123.08955258 -23.51207969 124.09480268 -25.3125 125.0625 C-64.12763541 147.11862989 -79.49002358 191.51959561 -94.55847168 230.86444092 C-105.69798955 259.90697288 -117.53206377 287.56874325 -138.87890625 310.69140625 C-140.82998345 312.81495436 -142.69968282 314.98675681 -144.5625 317.1875 C-156.32889247 330.6528219 -172.38776152 341.47942239 -188 350 C-188.62696777 350.34369629 -189.25393555 350.68739258 -189.89990234 351.04150391 C-232.33789903 373.98881954 -281.8462282 379.19769011 -328.203125 365.8515625 C-361.06161323 355.72149832 -388.14257709 337.39963707 -412 313 C-408.04592101 313 -406.25847641 314.45892374 -402.875 316.5 C-392.5995177 322.54400053 -381.89185721 328.261151 -370.29516602 331.23730469 C-367.94140419 332.01947169 -366.27410236 333.0025823 -364.234375 334.3984375 C-360.23436889 336.9630192 -356.34500111 338.5606203 -351.8125 339.9375 C-351.01787354 340.18346924 -350.22324707 340.42943848 -349.40454102 340.68286133 C-337.15443052 344.31222546 -324.54748338 346.65659187 -312 349 C-311.33145996 349.13417328 -310.66291992 349.26834656 -309.97412109 349.40658569 C-298.11829423 351.78275425 -286.59798101 352.50026238 -274.51464844 352.44604492 C-271.63403864 352.43752673 -268.75541642 352.46645047 -265.875 352.49804688 C-231.70555884 352.62750554 -200.95939814 341.57741804 -176 318 C-175.33484375 317.38769531 -174.6696875 316.77539062 -173.984375 316.14453125 C-168.73201407 311.13770752 -164.34003413 305.50878834 -159.92578125 299.7734375 C-157.98032567 297.24716095 -156.0006746 294.75596337 -153.98046875 292.2890625 C-141.16712589 276.63470571 -129.18361576 260.20088752 -125 240 C-124.81953125 239.12859375 -124.6390625 238.2571875 -124.453125 237.359375 C-121.68911181 222.36669739 -120.77245435 207.08603735 -120.42944336 191.87011719 C-120.40116455 190.90235352 -120.37288574 189.93458984 -120.34375 188.9375 C-120.31571289 187.65166016 -120.31571289 187.65166016 -120.28710938 186.33984375 C-120 184 -120 184 -119.04101562 182.12890625 C-115.72741973 175.35250938 -116.63767575 166.25880244 -116.3515625 158.9140625 C-116.29354592 157.52987059 -116.23488908 156.14570538 -116.17562866 154.76156616 C-115.92596556 148.92195646 -115.68098429 143.08220427 -115.453125 137.24169922 C-114.22694194 106.01725109 -114.22694194 106.01725109 -111 92 C-110.68661182 90.57193634 -110.37397098 89.14370851 -110.06201172 87.71533203 C-108.02483625 78.62368295 -104.95463554 70.43655582 -101 62 C-100.34 62 -99.68 62 -99 62 C-97.9921875 63.609375 -97.9921875 63.609375 -96.875 65.75 C-93.7497669 70.98963413 -89.68811758 72.95526707 -83.9453125 74.58203125 C-74.82934972 76.54068189 -65.06162084 73.25148832 -57.2578125 68.56640625 C-42.88248002 58.59320846 -37.49828483 45.32557556 -31.72265625 29.5 C-27.60921254 18.35559021 -22.92634073 7.69807407 -11.921875 1.90625 C-7.87943467 0.23990055 -4.41173422 -0.33088007 0 0 Z " fill="#FEB905" transform="translate(474,117)"/>
<path d="M0 0 C24.41654698 -0.97666188 24.41654698 -0.97666188 34.625 7.5 C38.06395137 10.69227554 39.79913943 13.23429546 40.3359375 17.953125 C40.46049121 28.46545843 38.12688374 34.38957917 31.0234375 42.0625 C16.61513883 55.85886321 -2.4670612 61.5373806 -21.9831543 61.41992188 C-32.3763494 61.14126957 -39.62961436 58.87866156 -47.44140625 51.87890625 C-51.21109759 47.33449137 -51.49734019 42.53630889 -51.375 36.83984375 C-50.75126183 32.11632657 -48.73337922 28.82533987 -46 25 C-45.50371094 24.22914063 -45.00742188 23.45828125 -44.49609375 22.6640625 C-42.27098623 19.60789072 -40.4936089 17.37404713 -36.73828125 16.43359375 C-33.75779571 16.3651293 -30.96197224 16.63911603 -28 17 C-26.42990787 17.16101767 -24.85957508 17.31969873 -23.2890625 17.4765625 C-18.85259655 17.93419972 -14.42648898 18.45460202 -10 19 C-11.61382757 22.40212299 -13.58603766 25.10324519 -16 28 C-13.03 26.02 -10.06 24.04 -7 22 C-5.66037175 29.41260966 -4.69763339 36.66798268 -4.24609375 44.1875 C-4.0542232 47.22807682 -4.0542232 47.22807682 -3 51 C-1.515 36.645 -1.515 36.645 0 22 C3.56521654 23.78260827 6.71455357 25.75992289 10 28 C9.4946875 27.43410156 8.989375 26.86820312 8.46875 26.28515625 C7.8190625 25.55167969 7.169375 24.81820313 6.5 24.0625 C5.8503125 23.33160156 5.200625 22.60070312 4.53125 21.84765625 C3 20 3 20 3 19 C3.80743652 18.91435791 4.61487305 18.82871582 5.44677734 18.74047852 C9.08995656 18.35180625 12.73247232 17.95722956 16.375 17.5625 C17.64601563 17.42779297 18.91703125 17.29308594 20.2265625 17.15429688 C21.43828125 17.02216797 22.65 16.89003906 23.8984375 16.75390625 C25.01911621 16.63345947 26.13979492 16.5130127 27.29443359 16.38891602 C29.96141866 16.15070767 29.96141866 16.15070767 32 15 C22.43 14.01 12.86 13.02 3 12 C4.98 9.36 6.96 6.72 9 4 C5.1844662 5.64424376 5.1844662 5.64424376 3.375 7.625 C2.694375 8.305625 2.694375 8.305625 2 9 C1.34 9 0.68 9 0 9 C0 6.03 0 3.06 0 0 Z " fill="#B60321" transform="translate(228,389)"/>
<path d="M0 0 C4.84650764 2.23194431 8.74835861 4.28467938 11.484375 9.04296875 C12.234375 11.85546875 12.234375 11.85546875 12.484375 14.04296875 C13.474375 14.37296875 14.464375 14.70296875 15.484375 15.04296875 C21.3879041 26.71181724 21.41644989 42.45817949 17.3984375 54.71875 C13.83557675 63.77816088 9.57957449 70.80899657 0.484375 75.04296875 C-5.53046474 76.71375757 -9.97990335 75.56015539 -15.515625 73.04296875 C-23.5387413 67.93734929 -26.95938266 59.85198035 -29.515625 51.04296875 C-32.53122205 36.34193312 -30.75893017 21.65496561 -22.515625 9.04296875 C-21.649375 7.68171875 -21.649375 7.68171875 -20.765625 6.29296875 C-14.96761674 0.49496049 -8.07256836 -3.07108579 0 0 Z " fill="#D83D50" transform="translate(125.515625,320.95703125)"/>
<path d="M0 0 C9.26792554 4.94706836 17.15627955 12.2217501 20.890625 22.23046875 C21.94014997 26.03912226 22.29342127 28.74716706 20.890625 32.54296875 C17.87597311 37.05068167 15.16178241 39.91271388 9.890625 41.54296875 C-0.48405015 42.80495187 -8.54194986 40.39563864 -16.859375 34.23046875 C-23.49521533 28.72986037 -30.02105531 22.07288688 -31.4921875 13.24609375 C-31.69015167 9.31320558 -31.25044993 6.85450923 -29.609375 3.23046875 C-21.06126109 -5.95875371 -10.71586969 -4.90457113 0 0 Z " fill="#CE0D24" transform="translate(271.109375,243.45703125)"/>
<path d="M0 0 C4.67750929 2.35501859 4.67750929 2.35501859 6 5 C7.18246996 13.99452563 4.06324614 21.46320454 -1.125 28.6875 C-5.08907812 33.48166286 -9.68482406 36.82405896 -15 40 C-15.70898438 40.43570313 -16.41796875 40.87140625 -17.1484375 41.3203125 C-23.64017768 44.77131193 -30.79662004 44.99573496 -38 44 C-41.15596072 42.20481836 -41.83363405 41.49909784 -43 38 C-44.04851603 28.56335571 -40.62302235 21.65817159 -34.8671875 14.2578125 C-25.79480237 4.40693888 -13.75348355 -2.61070252 0 0 Z " fill="#D83D50" transform="translate(140,221)"/>
<path d="M0 0 C9.08424014 0.05607556 18.02669072 1.15615235 27.03125 2.265625 C25.41742243 5.66774799 23.44521234 8.36887019 21.03125 11.265625 C24.00125 9.285625 26.97125 7.305625 30.03125 5.265625 C32.04307299 15.59298304 32.61442933 25.77929447 33.03125 36.265625 C20.85283779 39.18655946 7.9300051 37.98650121 -2.84375 31.578125 C-7.91306937 27.93539285 -10.1336503 24.11255966 -11.4453125 18.0703125 C-11.91864871 13.03892388 -10.65574843 10.31703319 -7.59375 6.328125 C-2.45336538 0.33100962 -2.45336538 0.33100962 0 0 Z " fill="#B50221" transform="translate(190.96875,405.734375)"/>
<path d="M0 0 C4.69925737 9.08523091 4.15641181 20.18045262 1.375 29.875 C-1.91941222 39.17077153 -6.1013149 47.11833267 -15 52 C-19.94847698 53.53739091 -24.64698565 54.1513929 -29.37890625 51.8359375 C-33.59312842 49.1282824 -37.43550148 46.38101831 -40 42 C-40.37742212 39.67339129 -40.71539556 37.33977688 -41 35 C-39.65808594 34.27296875 -39.65808594 34.27296875 -38.2890625 33.53125 C-23.42915866 25.35231931 -9.22817145 14.50141227 0 0 Z " fill="#CE0D24" transform="translate(138,336)"/>
<path d="M0 0 C5.93398258 2.45055253 9.76965658 6.38449593 13.11328125 11.8046875 C14.24097827 14.59660699 14.09289122 16.57572397 13.8125 19.5625 C13.73644531 20.51253906 13.66039062 21.46257812 13.58203125 22.44140625 C12.94415754 25.24548197 12.21113565 26.22989949 10 28 C10.495 29.485 10.495 29.485 11 31 C7.71480525 32.09506492 5.26336585 32.09960608 1.8125 32.0625 C0.18248047 32.04896484 0.18248047 32.04896484 -1.48046875 32.03515625 C-2.31191406 32.02355469 -3.14335937 32.01195312 -4 32 C-4 32.66 -4 33.32 -4 34 C-1.36 34 1.28 34 4 34 C1.20673397 36.79326603 -1.3762718 37.19961605 -5.1875 37.375 C-10.51345829 37.31428061 -13.9609287 35.35215441 -18 32 C-20.375 29.4375 -20.375 29.4375 -22 27 C-22.4125 26.401875 -22.825 25.80375 -23.25 25.1875 C-24.98785501 20.11875623 -24.54635147 15.59852053 -22.375 10.8125 C-17.55458733 2.11182607 -9.67051139 -1.42298816 0 0 Z " fill="#CE0D24" transform="translate(216,179)"/>
<path d="M0 0 C1.61690371 2.89143812 2.32045738 5.22881857 2.6328125 8.51953125 C2.71660156 9.37740234 2.80039063 10.23527344 2.88671875 11.11914062 C2.96535156 12.00794922 3.04398438 12.89675781 3.125 13.8125 C3.21136719 14.68970703 3.29773438 15.56691406 3.38671875 16.47070312 C3.8452999 21.3367587 4.09333496 26.11324829 4 31 C8.455 27.535 8.455 27.535 13 24 C13.66 24.33 14.32 24.66 15 25 C12.69 27.64 10.38 30.28 8 33 C8.83772949 33.08040527 9.67545898 33.16081055 10.53857422 33.24365234 C13.64414322 33.545972 16.74878815 33.85621538 19.85302734 34.171875 C21.19711182 34.30690015 22.54151866 34.43875537 23.88623047 34.56738281 C25.81820012 34.75273783 27.74897504 34.95041571 29.6796875 35.1484375 C30.84226074 35.26364746 32.00483398 35.37885742 33.20263672 35.49755859 C36 36 36 36 38 38 C37.00742187 38.12117188 36.01484375 38.24234375 34.9921875 38.3671875 C25.97841214 39.47606036 16.98571431 40.68022321 8 42 C10.31 44.64 12.62 47.28 15 50 C11.39426104 50 10.58663434 49.18292538 7.8125 47 C7.09707031 46.443125 6.38164062 45.88625 5.64453125 45.3125 C5.10183594 44.879375 4.55914062 44.44625 4 44 C3.98018066 44.58378418 3.96036133 45.16756836 3.93994141 45.76904297 C3.84337139 48.47140268 3.73424027 51.17312394 3.625 53.875 C3.57859375 55.25171875 3.57859375 55.25171875 3.53125 56.65625 C3.26580092 62.93854489 2.41690436 68.874511 1 75 C0.67 75 0.34 75 0 75 C-0.08564209 74.23333008 -0.17128418 73.46666016 -0.25952148 72.67675781 C-0.64938942 69.20085216 -1.04339819 65.72542805 -1.4375 62.25 C-1.57220703 61.0434375 -1.70691406 59.836875 -1.84570312 58.59375 C-1.97783203 57.43359375 -2.10996094 56.2734375 -2.24609375 55.078125 C-2.36654053 54.00981445 -2.4869873 52.94150391 -2.61108398 51.84082031 C-2.9773035 48.78278426 -2.9773035 48.78278426 -4 45 C-6.31 46.98 -8.62 48.96 -11 51 C-11.66 50.67 -12.32 50.34 -13 50 C-10.69 47.03 -8.38 44.06 -6 41 C-7.14855469 40.95101562 -8.29710937 40.90203125 -9.48046875 40.8515625 C-18.78452776 40.416784 -27.82360293 39.66990971 -37 38 C-37 37.67 -37 37.34 -37 37 C-33.3344862 36.49130173 -29.66743573 35.99463592 -26 35.5 C-24.97003906 35.35691406 -23.94007813 35.21382813 -22.87890625 35.06640625 C-17.19367468 34.30596126 -11.73533461 33.83455766 -6 34 C-8.31 31.03 -10.62 28.06 -13 25 C-8.61031544 25 -7.23094261 27.12805101 -4 30 C-2.16597099 20.04941708 -1.05032244 10.0562787 0 0 Z " fill="#FBF0F2" transform="translate(224,367)"/>
<path d="M0 0 C4.3550752 2.22426588 6.87800948 4.95988934 9.0078125 9.3046875 C9.66143245 14.53364711 8.88031474 17.90018407 6.0078125 22.3046875 C2.28044204 26.08297832 -0.93634499 28.11074009 -6.3046875 28.6171875 C-11.84882669 28.1473452 -14.69341724 25.77896726 -18.3046875 21.6796875 C-21.15618368 17.66647066 -21.39898953 15.26767232 -20.9921875 10.3046875 C-17.61082967 1.03010603 -9.44905561 -3.29790568 0 0 Z " fill="#CE0D24" transform="translate(192.9921875,269.6953125)"/>
<path d="M0 0 C3.62011046 2.33296007 5.89022378 4.96794755 7.8125 8.8125 C8.38675085 13.51947417 8.26804552 16.93394792 6.0625 21.1875 C2.09827024 25.81243472 -0.84010996 27.62009098 -7 28.125 C-11.3733685 28.06872504 -13.81147294 26.63894126 -17.1875 23.8125 C-20.65544808 19.86621425 -21.60905915 16.222702 -21.53125 10.94140625 C-20.91206091 7.10665566 -18.89741019 4.50814751 -16.1875 1.8125 C-10.82124691 -1.80388795 -6.06041722 -2.25780249 0 0 Z " fill="#CE0D24" transform="translate(273.1875,324.1875)"/>
<path d="M0 0 C0.495 1.485 0.495 1.485 1 3 C-7.35574727 18.53215484 -23.38065929 26.97343405 -39.6875 32 C-51.66289016 34.53772118 -68.22580978 35.54488997 -79 29 C-83.80933034 25.63426633 -87.24292094 22.73183073 -89 17 C-89.30078125 14.24609375 -89.30078125 14.24609375 -89.3125 11.4375 C-89.32925781 10.50808594 -89.34601563 9.57867187 -89.36328125 8.62109375 C-88.94541502 5.60616644 -88.00188259 4.24485514 -86 2 C-85.90203125 2.65226562 -85.8040625 3.30453125 -85.703125 3.9765625 C-84.76000133 9.48895772 -83.96589622 13.84525158 -80 18 C-72.72930632 22.38304229 -66.23178526 25.1475543 -57.69921875 25.09765625 C-56.72275391 25.09443359 -55.74628906 25.09121094 -54.74023438 25.08789062 C-53.22913086 25.07532227 -53.22913086 25.07532227 -51.6875 25.0625 C-50.66076172 25.05798828 -49.63402344 25.05347656 -48.57617188 25.04882812 C-46.05072118 25.03708184 -43.52539095 25.02065565 -41 25 C-40.67 24.34 -40.34 23.68 -40 23 C-38.00586712 22.633196 -36.00433573 22.30618525 -34 22 C-21.53358044 18.12724835 -7.40079291 11.31885974 0 0 Z " fill="#CC0D24" transform="translate(266,417)"/>
<path d="M0 0 C3.8781876 3.231823 5.06420253 6.06579514 6 11 C6 16.1016758 3.95129027 18.76217663 0.765625 22.484375 C-3.88128524 26.47331565 -9.02203002 26.43053062 -14.875 26.30859375 C-25.33178749 25.27598599 -33.68559094 18.98281594 -40.4375 11.25 C-45 5.68660969 -45 5.68660969 -45 2 C-41.68284339 3.55370333 -38.73134972 5.46789665 -35.6875 7.5 C-27.66842166 12.58862359 -20.4532091 14.03895514 -11 13 C-7.09685775 11.73096429 -4.61018528 9.81358038 -2.125 6.5 C-1.14147249 4.31438332 -0.43538874 2.35109918 0 0 Z " fill="#B6011F" transform="translate(287,259)"/>
<path d="M0 0 C2.125 0.375 2.125 0.375 4 1 C3.67 1.99 3.34 2.98 3 4 C2.38114542 10.03383214 2.78601026 15.74656826 6 21 C12.28356953 28.04647532 18.64226145 30.03353285 27.875 31.125 C28.56335938 31.21136719 29.25171875 31.29773438 29.9609375 31.38671875 C31.63995275 31.59659566 33.31989048 31.79907087 35 32 C35 33.32 35 34.64 35 36 C22.82158779 38.92093446 9.8987551 37.72087621 -0.875 31.3125 C-5.94431937 27.66976785 -8.1649003 23.84693466 -9.4765625 17.8046875 C-9.94989871 12.77329888 -8.68699843 10.05140819 -5.625 6.0625 C-3.81664029 3.952747 -1.96463968 1.96463968 0 0 Z " fill="#A40023" transform="translate(189,406)"/>
<path d="M0 0 C4.72907399 4.11972552 5.6652221 10.03892261 6.17724609 16.09716797 C6.90489964 30.19890955 5.01934929 42.54037397 -3.3125 54.25 C-8.08111524 59.12951327 -13.0042173 61.87938306 -20 62 C-29.15306598 60.07469992 -33.90037517 55.57658546 -39 48 C-38.67 47.34 -38.34 46.68 -38 46 C-37.44570312 46.42152344 -36.89140625 46.84304688 -36.3203125 47.27734375 C-35.59585938 47.82519531 -34.87140625 48.37304688 -34.125 48.9375 C-33.04605469 49.75541016 -33.04605469 49.75541016 -31.9453125 50.58984375 C-28.09885098 53.37814216 -24.63242798 53.46995646 -20 53 C-13.90786749 50.93487034 -9.45866899 48.3736257 -6.05078125 42.828125 C0.93341386 28.45166944 2.65672432 15.94034595 0 0 Z " fill="#EE343D" transform="translate(139,335)"/>
<path d="M0 0 C3.15994331 1.72480239 4.47052012 2.74749785 5.625 6.2109375 C5.08617187 6.05625 4.54734375 5.9015625 3.9921875 5.7421875 C-5.6252217 3.58382504 -13.67502803 5.20876673 -22.140625 10.1015625 C-30.89037951 15.80792413 -37.12780343 23.170755 -40.375 33.2109375 C-40.80495767 37.27473095 -40.76410564 41.14694521 -40.375 45.2109375 C-42.7584231 43.69509991 -44.15978504 42.70169964 -45.30859375 40.08203125 C-46.93367703 32.23376086 -45.8547632 26.56357448 -41.890625 19.60546875 C-33.04020027 6.18773769 -16.8725886 -5.60569555 0 0 Z " fill="#F25D64" transform="translate(138.375,216.7890625)"/>
<path d="M0 0 C0.66 0.99 1.32 1.98 2 3 C5.98495494 8.85290257 10.20078692 11.09879824 17 13 C23.30089056 13.80193153 29.01512933 11.81818856 35 10 C34.67 11.98 34.34 13.96 34 16 C33.01 16.33 32.02 16.66 31 17 C31.66 17.99 32.32 18.98 33 20 C29.71480525 21.09506492 27.26336585 21.09960608 23.8125 21.0625 C22.18248047 21.04896484 22.18248047 21.04896484 20.51953125 21.03515625 C19.68808594 21.02355469 18.85664063 21.01195312 18 21 C18 21.66 18 22.32 18 23 C20.64 23 23.28 23 26 23 C23.20673397 25.79326603 20.6237282 26.19961605 16.8125 26.375 C11.48654171 26.31428061 8.0390713 24.35215441 4 21 C1.625 18.4375 1.625 18.4375 0 16 C-0.4125 15.401875 -0.825 14.80375 -1.25 14.1875 C-2.69225843 9.98091292 -2.64835175 5.62087937 -1 1.5 C-0.67 1.005 -0.34 0.51 0 0 Z " fill="#B70221" transform="translate(194,190)"/>
<path d="M0 0 C9.04975909 6.77705105 15.31999524 15.04682683 17.39453125 26.30859375 C17.39453125 27.62859375 17.39453125 28.94859375 17.39453125 30.30859375 C16.73453125 30.30859375 16.07453125 30.30859375 15.39453125 30.30859375 C15.19150391 29.49068359 15.19150391 29.49068359 14.984375 28.65625 C12.19975877 18.90175601 6.12188544 11.45282637 -2.60546875 6.30859375 C-9.72548422 2.58609604 -16.50127984 -0.16241869 -24.60546875 1.30859375 C-28.83834857 2.66426906 -31.76248709 4.24806844 -34.54296875 7.74609375 C-35.59374166 10.28031076 -36.21801693 12.59643102 -36.60546875 15.30859375 C-36.93546875 15.30859375 -37.26546875 15.30859375 -37.60546875 15.30859375 C-38.17713125 9.1092315 -38.0710448 4.18402753 -34.34375 -0.9921875 C-24.57801273 -10.53847 -10.2083377 -6.62700183 0 0 Z " fill="#EE343D" transform="translate(276.60546875,239.69140625)"/>
<path d="M0 0 C1.07022958 2.71379643 1.07223499 3.80717918 0.03125 6.5859375 C-3.86980232 13.69142565 -7.48939455 18.88865277 -14.9375 22.375 C-21.41865351 23.69768439 -25.14332451 23.89377547 -30.75 20.3125 C-35.51802954 16.79402303 -38.57006738 14.1854908 -39.75 8.1875 C-39.8325 7.135625 -39.915 6.08375 -40 5 C-38.35 4.34 -36.7 3.68 -35 3 C-34.6596875 3.47050781 -34.319375 3.94101562 -33.96875 4.42578125 C-29.26514314 10.46791453 -24.98964927 12.4300501 -17.5 13.5 C-10.76561798 12.53794543 -6.53308302 9.0301488 -2.5 3.6875 C-1.65248416 2.46806897 -0.81375756 1.24221325 0 0 Z " fill="#B70120" transform="translate(137,366)"/>
<path d="M0 0 C0.495 1.485 0.495 1.485 1 3 C-3.24544142 11.00641806 -9.247231 16.52116328 -17 21 C-17.70769531 21.433125 -18.41539063 21.86625 -19.14453125 22.3125 C-25.63015708 25.77791788 -32.79766928 25.99558992 -40 25 C-43.15596072 23.20481836 -43.83363405 22.49909784 -45 19 C-45.06740865 17.43881572 -45.08514456 15.8749748 -45.0625 14.3125 C-45.05347656 13.50425781 -45.04445313 12.69601563 -45.03515625 11.86328125 C-45.02355469 11.24839844 -45.01195313 10.63351563 -45 10 C-43.15234375 9.35546875 -43.15234375 9.35546875 -41 9 C-39.29006566 10.6222454 -37.62652316 12.29413425 -36 14 C-31.96052839 16.23233957 -28.56999602 16.44950781 -24 16 C-15.57267388 13.40491862 -9.07962188 9.40825009 -3 3 C-2 2 -1 1 0 0 Z " fill="#C5344C" transform="translate(142,240)"/>
<path d="M0 0 C4.79005731 3.07054956 8.38917376 8.17116591 9.90625 13.640625 C10.1875 15.5625 10.1875 15.5625 10.3125 18.5 C9.6525 18.5 8.9925 18.5 8.3125 18.5 C7.3046875 16.92578125 7.3046875 16.92578125 6.1875 14.8125 C3.3829268 10.20907519 0.38470547 7.4297396 -4.6875 5.5 C-10.01622183 4.46644823 -14.33055486 4.91600538 -19.0625 7.625 C-24.83357977 11.76714596 -27.07967389 16.80072455 -28.6875 23.5 C-29.0175 23.5 -29.3475 23.5 -29.6875 23.5 C-30.0970533 15.85500502 -28.76304411 10.67436158 -24.5625 4.25 C-17.00327324 -2.98056472 -9.48885681 -3.85987396 0 0 Z " fill="#EE343D" transform="translate(220.6875,174.5)"/>
<path d="M0 0 C0.33 0 0.66 0 1 0 C1.495 6.93 1.495 6.93 2 14 C3.65 13.01 5.3 12.02 7 11 C6.34 12.32 5.68 13.64 5 15 C9.62 15.66 14.24 16.32 19 17 C19 17.66 19 18.32 19 19 C17.86111328 19.09087891 17.86111328 19.09087891 16.69921875 19.18359375 C15.70535156 19.26738281 14.71148437 19.35117188 13.6875 19.4375 C12.70136719 19.51871094 11.71523437 19.59992188 10.69921875 19.68359375 C7.90624401 19.91812559 7.90624401 19.91812559 5 21 C5.33 21.66 5.66 22.32 6 23 C5.01 22.67 4.02 22.34 3 22 C2.34 26.62 1.68 31.24 1 36 C0.67 36 0.34 36 0 36 C-0.66 31.38 -1.32 26.76 -2 22 C-3.32 22.99 -4.64 23.98 -6 25 C-5.34 23.68 -4.68 22.36 -4 21 C-5.87824891 19.12175109 -9.03935276 19.60897603 -11.5625 19.4375 C-12.76003906 19.35371094 -13.95757812 19.26992187 -15.19140625 19.18359375 C-16.58166016 19.09271484 -16.58166016 19.09271484 -18 19 C-18 18.34 -18 17.68 -18 17 C-17.15695313 16.93941406 -16.31390625 16.87882812 -15.4453125 16.81640625 C-14.34960938 16.73261719 -13.25390625 16.64882812 -12.125 16.5625 C-11.03445312 16.48128906 -9.94390625 16.40007812 -8.8203125 16.31640625 C-6.05271029 16.16998297 -6.05271029 16.16998297 -4 15 C-4.66 13.68 -5.32 12.36 -6 11 C-5.01 11.33 -4.02 11.66 -3 12 C-2.01 8.04 -1.02 4.08 0 0 Z " fill="#FBE4E6" transform="translate(230,194)"/>
<path d="M0 0 C0.33 0 0.66 0 1 0 C1.56009503 6.77092663 1.51606324 11.79679993 -2.58203125 17.41015625 C-5.52412977 20.70887277 -8.14390868 21.7780504 -12.375 22.875 C-16.86569199 23.02985145 -19.11599854 22.25978267 -23 20 C-26.73303195 16.4431336 -29.86540774 13.11715666 -30.09765625 7.73828125 C-30.08605469 6.93777344 -30.07445312 6.13726562 -30.0625 5.3125 C-30.05347656 4.50425781 -30.04445312 3.69601562 -30.03515625 2.86328125 C-30.02355469 2.24839844 -30.01195312 1.63351562 -30 1 C-29.67 1 -29.34 1 -29 1 C-28.84144531 1.67546875 -28.68289062 2.3509375 -28.51953125 3.046875 C-27.08505945 8.53115393 -26.13033575 11.97441738 -21 15 C-17.79577956 16.60211022 -14.48441498 16.35104181 -11 16 C-5.82417112 14.20836693 -3.51354942 11.84090998 -1 7 C-0.20317197 3.26774656 -0.20317197 3.26774656 0 0 Z " fill="#EB313C" transform="translate(281,335)"/>
<path d="M0 0 C0.33 0 0.66 0 1 0 C1.42164443 6.88685895 0.11644127 11.55795238 -4.4375 16.8125 C-8.60327173 20.3686466 -11.26358008 21.48734942 -16.91015625 21.30859375 C-22.21199364 20.52570561 -25.22852743 18.0353974 -28.375 13.8125 C-30.4507928 9.73188168 -30.79501632 5.51989019 -31 1 C-30.70609375 1.598125 -30.4121875 2.19625 -30.109375 2.8125 C-27.32161488 8.30949178 -24.58025338 12.15516494 -19 15 C-13.77655808 15.65293024 -10.41482276 14.845108 -6 12 C-2.29851372 8.29851372 -1.16791801 4.96365152 0 0 Z " fill="#EC333D" transform="translate(202,282)"/>
<path d="M0 0 C0.33 0 0.66 0 1 0 C1.309375 1.5778125 1.309375 1.5778125 1.625 3.1875 C2.89241276 7.68271216 5.21734555 9.37530099 9 12 C12.42232972 13.14077657 15.08673217 13.09815117 18.6875 13.0625 C19.86699219 13.05347656 21.04648438 13.04445313 22.26171875 13.03515625 C23.16535156 13.02355469 24.06898438 13.01195312 25 13 C21.23193958 16.97173936 19.23545957 18.78910759 13.6875 19.3125 C8.14336081 18.8426577 5.29877026 16.47427976 1.6875 12.375 C-1.14728748 8.3852991 -1.17820878 5.90074149 -1 1 C-0.67 0.67 -0.34 0.34 0 0 Z " fill="#B90320" transform="translate(173,279)"/>
<path d="M0 0 C2 3 2 3 3.625 5.9375 C6.94959936 10.22448339 10.71140411 12.57701031 16.15625 13.27734375 C19.5397005 13.33415542 22.78172701 13.07275766 26 12 C22.01566433 16.19970516 20.0558213 17.83149006 14.1875 18.3125 C9.8141315 18.25622504 7.37602706 16.82644126 4 14 C0.07650849 9.53533724 -0.11005416 5.83287025 0 0 Z " fill="#B70120" transform="translate(252,334)"/>
<path d="M0 0 C2.3125 1.9375 2.3125 1.9375 4 4 C4 4.66 4 5.32 4 6 C-11.74487472 8.29612756 -11.74487472 8.29612756 -19 8 C-14.54792278 2.53608705 -7.06090728 -2.29834902 0 0 Z " fill="#B80927" transform="translate(214,395)"/>
<path d="M0 0 C0 3 0 3 -1.6953125 4.796875 C-10.82202356 12.13345945 -23.9594851 21 -36 21 C-36 19.68 -36 18.36 -36 17 C-35.15179688 16.79246094 -34.30359375 16.58492188 -33.4296875 16.37109375 C-21.103983 13.13390323 -9.83689912 8.33997969 0 0 Z " fill="#A50022" transform="translate(262,420)"/>
<path d="M0 0 C0.33 0 0.66 0 1 0 C1.03738281 1.12277344 1.07476562 2.24554688 1.11328125 3.40234375 C1.44369774 11.42636048 1.86249174 18.49726287 5 26 C3.02 26.99 1.04 27.98 -1 29 C-2.83955608 19.43430841 -3.04070694 9.31216501 0 0 Z " fill="#C7354D" transform="translate(97,343)"/>
<path d="M0 0 C3.63 0 7.26 0 11 0 C11 0.66 11 1.32 11 2 C9.1015625 3.7265625 9.1015625 3.7265625 6.625 5.625 C5.40683594 6.57246094 5.40683594 6.57246094 4.1640625 7.5390625 C2 9 2 9 0 9 C0 6.03 0 3.06 0 0 Z " fill="#BB112D" transform="translate(228,389)"/>
<path d="M0 0 C0.33 0 0.66 0 1 0 C1.33 3.63 1.66 7.26 2 11 C1.34 11 0.68 11 0 11 C-0.66 12.65 -1.32 14.3 -2 16 C-3.32 15.01 -4.64 14.02 -6 13 C-5.67 12.34 -5.34 11.68 -5 11 C-4.34 11.33 -3.68 11.66 -3 12 C-2.01 8.04 -1.02 4.08 0 0 Z " fill="#F5BFC4" transform="translate(230,194)"/>
<path d="M0 0 C0 2.31 0 4.62 0 7 C-2.03833424 5.7260411 -4.03852126 4.38938077 -6 3 C-6 2.34 -6 1.68 -6 1 C-3 0 -3 0 0 0 Z " fill="#BB0E2A" transform="translate(221,391)"/>
<path d="M0 0 C0.99 0 1.98 0 3 0 C2.67 3.3 2.34 6.6 2 10 C1.67 10 1.34 10 1 10 C0.67 6.7 0.34 3.4 0 0 Z " fill="#FCD5D8" transform="translate(229,220)"/>
</svg>
